name ../AP_Laxity/ap_90.mot
datacolumns   7
datarows 58
range   21.00000000 21.57000000
cursor 1.0 1.0 0.0
keys m_key
wrap
enforce_loops no
enforce_constraints no
calc_derivatives -1.000000
event_color 0.000000 0.000000 0.000000
endheader
            time femur_r_force_vx femur_r_force_vy femur_r_force_vz femur_r_force_px femur_r_force_py femur_r_force_pz 
     21.00000000       0.00000000     -88.10810276       0.00000000      -0.06999998      -0.44905096       0.00000000 
     21.01000000       0.00000000     -88.28287253       0.00000000      -0.06999998      -0.44905096       0.00000000 
     21.02000000       0.00000000     -88.45651913       0.00000000      -0.06999998      -0.44905096       0.00000000 
     21.03000000       0.00000000     -88.62903746       0.00000000      -0.06999998      -0.44905096       0.00000000 
     21.04000000       0.00000000     -88.80042246       0.00000000      -0.06999998      -0.44905096       0.00000000 
     21.05000000       0.00000000     -88.97066910       0.00000000      -0.06999998      -0.44905096       0.00000000 
     21.06000000       0.00000000     -89.13977239       0.00000000      -0.06999998      -0.44905096       0.00000000 
     21.07000000       0.00000000     -89.30772736       0.00000000      -0.06999998      -0.44905096       0.00000000 
     21.08000000       0.00000000     -89.47452909       0.00000000      -0.06999998      -0.44905096       0.00000000 
     21.09000000       0.00000000     -89.64017269       0.00000000      -0.06999998      -0.44905096       0.00000000 
     21.10000000       0.00000000     -89.80465329       0.00000000      -0.06999998      -0.44905096       0.00000000 
     21.11000000       0.00000000     -89.96796606       0.00000000      -0.06999998      -0.44905096       0.00000000 
     21.12000000       0.00000000     -90.13010622       0.00000000      -0.06999998      -0.44905096       0.00000000 
     21.13000000       0.00000000     -90.29106902       0.00000000      -0.06999998      -0.44905096       0.00000000 
     21.14000000       0.00000000     -90.45084972       0.00000000      -0.06999998      -0.44905096       0.00000000 
     21.15000000       0.00000000     -90.60944364       0.00000000      -0.06999998      -0.44905096       0.00000000 
     21.16000000       0.00000000     -90.76684613       0.00000000      -0.06999998      -0.44905096       0.00000000 
     21.17000000       0.00000000     -90.92305256       0.00000000      -0.06999998      -0.44905096       0.00000000 
     21.18000000       0.00000000     -91.07805836       0.00000000      -0.06999998      -0.44905096       0.00000000 
     21.19000000       0.00000000     -91.23185898       0.00000000      -0.06999998      -0.44905096       0.00000000 
     21.20000000       0.00000000     -91.38444991       0.00000000      -0.06999998      -0.44905096       0.00000000 
     21.21000000       0.00000000     -91.53582666       0.00000000      -0.06999998      -0.44905096       0.00000000 
     21.22000000       0.00000000     -91.68598480       0.00000000      -0.06999998      -0.44905096       0.00000000 
     21.23000000       0.00000000     -91.83491993       0.00000000      -0.06999998      -0.44905096       0.00000000 
     21.24000000       0.00000000     -91.98262766       0.00000000      -0.06999998      -0.44905096       0.00000000 
     21.25000000       0.00000000     -92.12910368       0.00000000      -0.06999998      -0.44905096       0.00000000 
     21.26000000       0.00000000     -92.27434368       0.00000000      -0.06999998      -0.44905096       0.00000000 
     21.27000000       0.00000000     -92.41834340       0.00000000      -0.06999998      -0.44905096       0.00000000 
     21.28000000       0.00000000     -92.56109861       0.00000000      -0.06999998      -0.44905096       0.00000000 
     21.29000000       0.00000000     -92.70260513       0.00000000      -0.06999998      -0.44905096       0.00000000 
     21.30000000       0.00000000     -92.84285881       0.00000000      -0.06999998      -0.44905096       0.00000000 
     21.31000000       0.00000000     -92.98185553       0.00000000      -0.06999998      -0.44905096       0.00000000 
     21.32000000       0.00000000     -93.11959121       0.00000000      -0.06999998      -0.44905096       0.00000000 
     21.33000000       0.00000000     -93.25606181       0.00000000      -0.06999998      -0.44905096       0.00000000 
     21.34000000       0.00000000     -93.39126333       0.00000000      -0.06999998      -0.44905096       0.00000000 
     21.35000000       0.00000000     -93.52519180       0.00000000      -0.06999998      -0.44905096       0.00000000 
     21.36000000       0.00000000     -93.65784330       0.00000000      -0.06999998      -0.44905096       0.00000000 
     21.37000000       0.00000000     -93.78921392       0.00000000      -0.06999998      -0.44905096       0.00000000 
     21.38000000       0.00000000     -93.91929982       0.00000000      -0.06999998      -0.44905096       0.00000000 
     21.39000000       0.00000000     -94.04809718       0.00000000      -0.06999998      -0.44905096       0.00000000 
     21.40000000       0.00000000     -94.17560222       0.00000000      -0.06999998      -0.44905096       0.00000000 
     21.41000000       0.00000000     -94.30181120       0.00000000      -0.06999998      -0.44905096       0.00000000 
     21.42000000       0.00000000     -94.42672042       0.00000000      -0.06999998      -0.44905096       0.00000000 
     21.43000000       0.00000000     -94.55032621       0.00000000      -0.06999998      -0.44905096       0.00000000 
     21.44000000       0.00000000     -94.67262494       0.00000000      -0.06999998      -0.44905096       0.00000000 
     21.45000000       0.00000000     -94.79361304       0.00000000      -0.06999998      -0.44905096       0.00000000 
     21.46000000       0.00000000     -94.91328694       0.00000000      -0.06999998      -0.44905096       0.00000000 
     21.47000000       0.00000000     -95.03164314       0.00000000      -0.06999998      -0.44905096       0.00000000 
     21.48000000       0.00000000     -95.14867816       0.00000000      -0.06999998      -0.44905096       0.00000000 
     21.49000000       0.00000000     -95.26438857       0.00000000      -0.06999998      -0.44905096       0.00000000 
     21.50000000       0.00000000     -95.37877098       0.00000000      -0.06999998      -0.44905096       0.00000000 
     21.51000000       0.00000000     -95.49182203       0.00000000      -0.06999998      -0.44905096       0.00000000 
     21.52000000       0.00000000     -95.60353841       0.00000000      -0.06999998      -0.44905096       0.00000000 
     21.53000000       0.00000000     -95.71391683       0.00000000      -0.06999998      -0.44905096       0.00000000 
     21.54000000       0.00000000     -95.82295405       0.00000000      -0.06999998      -0.44905096       0.00000000 
     21.55000000       0.00000000     -95.93064689       0.00000000      -0.06999998      -0.44905096       0.00000000 
     21.56000000       0.00000000     -96.03699217       0.00000000      -0.06999998      -0.44905096       0.00000000 
     21.57000000       0.00000000     -96.14198679       0.00000000      -0.06999998      -0.44905096       0.00000000 
